<?xml version="1.0" standalone="no"?><!DOCTYPE svg PUBLIC "-//W3C//DTD SVG 1.1//EN" "http://www.w3.org/Graphics/SVG/1.1/DTD/svg11.dtd"><svg t="1531466462954" class="icon" style="" viewBox="0 0 1024 1024" version="1.1" xmlns="http://www.w3.org/2000/svg" p-id="5351" xmlns:xlink="http://www.w3.org/1999/xlink" width="24px" height="24px"><defs><style type="text/css"></style></defs><path d="M979.28 437.594c-36.351-148.713-86.616-303.649-265.909-278.146-69.261 9.824-121.656 50.389-198.86 50.552-64.593 0.165-115.106-40.565-174.378-50.552-179.292-30.251-221.782 55.589-273.85 215.601-29.391 90.463-123.377 402.423-16.455 477.129 108.229 75.686 226.284-132.546 307.824-164.23 70.326-27.424 221.701-25.09 291.042-4.131 94.149 28.445 186.825 208.231 292.844 184.611 145.233-32.462 59.681-340.778 37.742-430.834M301.573 568.993c-78.103 0-141.306-63.243-141.306-141.264 0-78.062 63.203-141.347 141.306-141.347 78.02 0 141.222 63.285 141.222 141.347-0.001 78.021-63.202 141.264-141.222 141.264m440.286-258.744c16.129-16.17 42.326-16.17 58.539 0 16.045 16.129 16.045 42.285 0 58.456-16.213 16.167-42.41 16.167-58.539 0-16.125-16.171-16.125-42.327 0-58.456m-78.673 137.087c-16.129-16.087-16.129-42.243 0-58.452 16.129-16.087 42.326-16.087 58.455 0 16.209 16.209 16.209 42.365 0 58.452-16.129 16.171-42.327 16.171-58.455 0m134.425 75.933c-16.209 16.129-42.323 16.129-58.535 0-16.129-16.167-16.129-42.323 0-58.41 16.212-16.17 42.326-16.17 58.535 0 16.049 16.086 16.049 42.243 0 58.41m78.594-78.716c-16.125 16.212-42.323 16.212-58.372 0-16.209-16.087-16.209-42.243 0-58.414 16.049-16.087 42.327-16.087 58.372 0 16.212 16.171 16.212 42.327 0 58.414m-574.632-99.92c-45.847 0.083-82.934 37.209-83.015 83.097 0.082 45.763 37.168 82.892 83.015 82.975 45.846-0.083 82.932-37.212 82.932-82.975-0.001-45.888-37.086-83.014-82.932-83.097"></path></svg>
