<svg enable-background="new 0 0 24 24" height="24px" version="1.1" viewBox="0 0 24 24" width="24px" x="0px" xml:space="preserve" xmlns="http://www.w3.org/2000/svg" xmlns:xlink="http://www.w3.org/1999/xlink" y="0px"><g><path d="M3.205,9.23l1.99,1.15C5.072,10.902,5,11.441,5,12s0.072,1.098,0.195,1.617l-1.99,1.15   c-0.479,0.274-0.643,0.887-0.365,1.364l1,1.732c0.275,0.479,0.887,0.643,1.365,0.366L7.2,17.08c0.784,0.742,1.737,1.307,2.8,1.624   V21c0,0.553,0.447,1,1,1h2c0.553,0,1-0.447,1-1v-2.295c1.063-0.316,2.016-0.882,2.801-1.624l1.994,1.151   c0.479,0.274,1.09,0.11,1.365-0.367l1-1.731c0.277-0.479,0.113-1.09-0.365-1.366l-1.99-1.148C18.928,13.098,19,12.559,19,12   s-0.072-1.098-0.195-1.618l1.99-1.149c0.479-0.276,0.643-0.889,0.365-1.366l-1-1.731c-0.276-0.479-0.887-0.644-1.365-0.367   L16.799,6.92C16.014,6.177,15,5.611,14,5.295V2.998C14,2.447,13.553,1.999,13,2h-2c-0.553-0.001-1,0.445-1,0.998v2.297   C8.939,5.611,7.986,6.176,7.201,6.918l-1.996-1.15C4.729,5.491,4.115,5.654,3.84,6.134l-1,1.731   C2.563,8.344,2.727,8.955,3.205,9.23z M12,7c2.757,0,5,2.243,5,5s-2.243,5-5,5s-5-2.243-5-5S9.243,7,12,7z"/></g><g display="none"></g><g></g><g display="none"></g></svg>