<svg id="Layer_1" xmlns="http://www.w3.org/2000/svg" viewBox="520 -491 2000 1543"><style>.st0{fill:none;stroke:#FFFFFF;stroke-width:10;stroke-miterlimit:10;}</style><g id="Layer_2"><path class="st0" d="M783.5 567.8s-11.7 17.9-13.8 24.3l-46.8 164.2 432.1 2-3.8-4.8-135.3-44.2-261.7-62.9m487.9-46.3l30.4 31.3m22-27.2l29.7 30.7m21-27l29.5 30.5m21-27l29.6 30.4m23.5-26.7l29.3 30.3m21.3-26.6l28.9 30.1m-815.6-13.3l-28.7-1.8v-50l-6.3-6.7 17.5-774.3 13.5-15h14.2l17.6 16L754 570.6h9.7m530.9-73.4l11-663.4 11-12h13.1l15.6 13 10.9 658.2"/><path class="st0" d="M684 773.2V762l28.7-126.4c20.8-29.6 64.2-80.6 64.2-80.6h4.8l1.8 12.8s11.7-17.2 25.5-28l50.2-21.5 156.4-17.1 29.1 13.3"/></g><g id="Layer_2_1_"><path class="st0" d="M2340.6 646.3l-261.7 62.9-135.3 44.2-3.8 4.8 432.1-2-46.8-164.2c-2.1-6.4-13.8-24.3-13.8-24.3m-489 63.7l30.4-31.3m-82.1 34.8l29.7-30.7m-80.2 34.2l29.5-30.5m-80.1 33.9l29.6-30.4m-82.4 34l29.3-30.3m-79.5 33.8l28.9-30.1m735.7-48.2h9.7l13.5-766.8 17.6-16h14.2l13.5 15 17.5 774.3-6.3 6.7v50l-28.7 1.8M1738.6 493l10.9-658.2 15.6-13h13.1l11 12 11 663.4"/><path class="st0" d="M2050.1 514.5l29.1-13.3 156.4 17.1 50.2 21.5c13.8 10.8 25.5 28 25.5 28l1.8-12.8h4.8s43.4 51 64.2 80.6l28.7 126.4v11.2"/></g><path class="st0" d="M1044.7 514.5l502.7-34.7 502.7 34.7M2050.1 514.5l-88.7 40.5-414 33.6-414-33.6-88.7-40.5"/><path class="st0" d="M1827.9 631l258.9 60.1 235.7-58-2.8-36.6-52.3-25.9-720 51.7-720-51.7-52.3 25.9-2.8 36.6 235.7 58 258.9-60.1"/><path class="st0" d="M1266.9 631l280.5 19.1 280.5-19.1m582.9 142.2H684m1225.9 0l-195.3-32.6-167.2 23.5-167.2-23.5-195.3 32.6"/></svg>